<?xml version="1.0" encoding="utf-8"?>
<!-- Generator: Adobe Illustrator 20.0.0, SVG Export Plug-In . SVG Version: 6.00 Build 0)  -->
<svg version="1.1" id="Layer_1" xmlns="http://www.w3.org/2000/svg" xmlns:xlink="http://www.w3.org/1999/xlink" x="0px" y="0px"
	 viewBox="0 0 540 195" style="enable-background:new 0 0 540 195;" xml:space="preserve">
<g>
	<path d="M43.4,37.7v63.4c0,7-1.3,11.8-4,14.5c-2.6,2.7-5.8,4-9.4,4c-0.8,0-1.8-0.1-3-0.2l-0.5-4.6c1,0.2,2,0.4,2.9,0.4
		c5.9,0,8.9-4.2,8.9-12.7V37.7H43.4z"/>
	<path d="M85.5,37.2l29.3,63.9h-5.1l-10-21.9h-31l-10,21.9h-5.1l29.3-63.9H85.5z M97.8,75.1L84.1,45.2L70.5,75.1H97.8z"/>
	<path d="M173.7,42.2v5.4c-7.7-4.1-15.2-6.1-22.6-6.1c-7.9,0-14.5,2.7-19.8,8c-5.3,5.4-7.9,12-7.9,20.1c0,8.1,2.7,14.8,8,20
		c5.3,5.2,12.1,7.9,20.4,7.9c6.9,0,14.4-2.2,22.6-6.5V96c-7.5,4-15,5.9-22.5,5.9c-9.7,0-17.7-3.1-24.1-9.3s-9.6-13.9-9.6-23.1
		c0-9.3,3.3-17.1,9.9-23.3c6.6-6.2,14.4-9.4,23.5-9.4C158.5,36.9,166,38.6,173.7,42.2z"/>
	<path d="M217.7,36.9c9.4,0,17.3,3.2,23.9,9.5c6.5,6.3,9.8,14,9.8,23.1c0,9.1-3.3,16.7-9.8,23c-6.5,6.3-14.5,9.5-23.9,9.5
		c-9.4,0-17.3-3.2-23.8-9.5c-6.5-6.3-9.7-14-9.7-23c0-9.1,3.2-16.8,9.7-23.1C200.4,40,208.3,36.9,217.7,36.9z M217.9,97.4
		c7.9,0,14.6-2.7,20-8.1c5.4-5.4,8.2-12,8.2-19.9c0-7.9-2.7-14.5-8.2-19.9c-5.4-5.4-12.1-8.1-20-8.1c-7.9,0-14.6,2.7-20.1,8.1
		c-5.5,5.4-8.2,12-8.2,19.9c0,7.8,2.7,14.5,8.2,19.9C203.2,94.7,209.9,97.4,217.9,97.4z"/>
	<path d="M266.4,37.7h13.2c6.9,0,12.2,1.5,15.8,4.4c3.6,2.9,5.4,6.9,5.4,12c0,6.1-3,10.8-9.1,14.1c9.8,2.1,14.7,7.5,14.7,16.1
		c0,5.1-1.9,9.2-5.7,12.3c-3.8,3-9,4.6-15.6,4.6h-18.6V37.7z M271.3,41.8v25.3h6.8c11.5,0,17.3-4.2,17.3-12.6
		c0-8.4-5.8-12.7-17.5-12.7H271.3z M271.3,71.2V97h13.1c5.4,0,9.5-1.2,12.4-3.5c2.8-2.3,4.2-5.4,4.2-9.4c0-8.7-6.2-13-18.7-13H271.3
		z"/>
	<path d="M348.5,40.9v5.4c-5.5-3.2-10.2-4.9-14.2-4.9c-3.8,0-7,1.2-9.6,3.5c-2.6,2.3-3.8,5.2-3.8,8.6c0,2.5,0.8,4.7,2.3,6.6
		c1.5,2,4.7,3.9,9.5,5.7s8.3,3.3,10.5,4.5c2.2,1.2,4.1,3,5.6,5.3c1.5,2.3,2.3,5.3,2.3,8.9c0,4.9-1.8,9-5.4,12.4
		c-3.6,3.4-7.9,5-13.1,5c-5.3,0-10.7-1.8-16.3-5.5v-5.8c6.1,4.5,11.5,6.8,16,6.8c3.8,0,6.9-1.2,9.5-3.7c2.6-2.4,3.9-5.4,3.9-9
		c0-2.7-0.8-5.1-2.4-7.3c-1.6-2.2-4.9-4.2-9.8-6.1c-4.9-1.9-8.4-3.4-10.5-4.5c-2.1-1.1-3.9-2.8-5.4-4.9c-1.5-2.1-2.2-4.9-2.2-8.2
		c0-4.7,1.8-8.6,5.4-11.9c3.6-3.3,7.9-4.9,12.9-4.9C338.8,36.9,343.7,38.2,348.5,40.9z"/>
	<path d="M396.2,36.9c9.4,0,17.3,3.2,23.9,9.5c6.5,6.3,9.8,14,9.8,23.1c0,9.1-3.3,16.7-9.8,23c-6.5,6.3-14.5,9.5-23.9,9.5
		c-9.4,0-17.3-3.2-23.8-9.5c-6.5-6.3-9.7-14-9.7-23c0-9.1,3.2-16.8,9.7-23.1C378.9,40,386.8,36.9,396.2,36.9z M396.3,97.4
		c7.9,0,14.6-2.7,20-8.1c5.4-5.4,8.2-12,8.2-19.9c0-7.9-2.7-14.5-8.2-19.9c-5.4-5.4-12.1-8.1-20-8.1c-7.9,0-14.6,2.7-20.1,8.1
		c-5.5,5.4-8.2,12-8.2,19.9c0,7.8,2.7,14.5,8.2,19.9C381.7,94.7,388.4,97.4,396.3,97.4z"/>
	<path d="M501.9,37.7v63.4h-4l-48.2-55.4v55.4h-4.9V37.7h4.2L497,93.1V37.7H501.9z"/>
</g>
<g>
	<g>
		<path d="M85.7,131.7v22.5H84v-22.5H85.7z"/>
		<path d="M119.3,131.7v22.5h-1.4l-17.1-19.7v19.7h-1.7v-22.5h1.5l17.1,19.7v-19.7H119.3z"/>
		<path d="M148.9,131.7v1.5h-8.4v21.1h-1.8v-21.1h-8.4v-1.5H148.9z"/>
		<path d="M172.1,131.7v1.5h-10.5v9h10.3v1.5h-10.3v9.1h10.8v1.5h-12.5v-22.5H172.1z"/>
		<path d="M184.2,131.7h5.8c2.4,0,4.3,0.5,5.5,1.6c1.3,1,1.9,2.5,1.9,4.2c0,2.6-1.4,4.4-4.3,5.5c0.7,0.4,1.7,1.5,3,3.4l5.1,7.8h-2.1
			l-3.9-6.2c-1.3-2.1-2.3-3.4-3.1-3.9c-0.7-0.5-1.8-0.8-3.2-0.8h-3v10.8h-1.7V131.7z M185.9,133.1v8.8h3.7c1.9,0,3.4-0.4,4.4-1.2
			c1-0.8,1.5-1.9,1.5-3.3c0-1.4-0.5-2.5-1.5-3.2s-2.5-1.2-4.4-1.2H185.9z"/>
		<path d="M213,131.7v22.5h-1.7v-22.5H213z"/>
		<path d="M237.3,131.4c3.3,0,6.2,1.1,8.5,3.4c2.3,2.2,3.5,5,3.5,8.2c0,3.2-1.2,5.9-3.5,8.2c-2.3,2.2-5.1,3.4-8.5,3.4
			c-3.3,0-6.1-1.1-8.4-3.4c-2.3-2.2-3.5-5-3.5-8.2c0-3.2,1.2-6,3.5-8.2C231.2,132.5,234,131.4,237.3,131.4z M237.3,152.9
			c2.8,0,5.2-1,7.1-2.9c1.9-1.9,2.9-4.3,2.9-7c0-2.8-1-5.1-2.9-7.1c-1.9-1.9-4.3-2.9-7.1-2.9c-2.8,0-5.2,1-7.1,2.9
			c-1.9,1.9-2.9,4.3-2.9,7.1c0,2.8,1,5.1,2.9,7C232.2,151.9,234.5,152.9,237.3,152.9z"/>
		<path d="M261.7,131.7h5.8c2.4,0,4.3,0.5,5.5,1.6c1.3,1,1.9,2.5,1.9,4.2c0,2.6-1.4,4.4-4.3,5.5c0.7,0.4,1.7,1.5,3,3.4l5.1,7.8h-2.1
			l-3.9-6.2c-1.3-2.1-2.3-3.4-3.1-3.9s-1.8-0.8-3.2-0.8h-3v10.8h-1.7V131.7z M263.4,133.1v8.8h3.7c1.9,0,3.4-0.4,4.4-1.2
			c1-0.8,1.5-1.9,1.5-3.3c0-1.4-0.5-2.5-1.5-3.2c-1-0.8-2.5-1.2-4.4-1.2H263.4z"/>
		<path d="M306.1,131.7h7.9c4,0,7,1,9.1,3.1c2.1,2.1,3.1,4.8,3.1,8.1c0,3.3-1,5.9-3.1,8.1c-2.1,2.1-5,3.2-8.9,3.2h-8.2V131.7z
			 M307.9,133.1v19.6h6.3c2.9,0,5.3-0.9,7.3-2.7c1.9-1.8,2.9-4.2,2.9-7.1c0-2.9-1-5.2-2.9-7.1s-4.4-2.7-7.4-2.7H307.9z"/>
		<path d="M351.1,131.7v1.5h-10.5v9h10.3v1.5h-10.3v9.1h10.8v1.5h-12.5v-22.5H351.1z"/>
		<path d="M373.7,132.8v1.9c-2-1.1-3.6-1.7-5-1.7c-1.4,0-2.5,0.4-3.4,1.2c-0.9,0.8-1.4,1.8-1.4,3.1c0,0.9,0.3,1.7,0.8,2.4
			c0.5,0.7,1.7,1.4,3.4,2s3,1.2,3.7,1.6s1.5,1.1,2,1.9s0.8,1.9,0.8,3.2c0,1.7-0.6,3.2-1.9,4.4c-1.3,1.2-2.8,1.8-4.6,1.8
			c-1.9,0-3.8-0.7-5.8-2v-2c2.2,1.6,4.1,2.4,5.7,2.4c1.3,0,2.5-0.4,3.4-1.3c0.9-0.9,1.4-1.9,1.4-3.2c0-1-0.3-1.8-0.9-2.6
			c-0.6-0.8-1.7-1.5-3.5-2.2c-1.7-0.7-3-1.2-3.7-1.6c-0.7-0.4-1.4-1-1.9-1.7c-0.5-0.8-0.8-1.7-0.8-2.9c0-1.7,0.6-3.1,1.9-4.2
			c1.3-1.2,2.8-1.7,4.6-1.7C370.2,131.4,372,131.9,373.7,132.8z"/>
		<path d="M388.5,131.7v22.5h-1.7v-22.5H388.5z"/>
		<path d="M420.7,133.3v2c-2.7-1.5-5.3-2.3-8-2.3c-2.8,0-5.2,0.9-7.1,2.8c-1.9,1.9-2.8,4.3-2.8,7.1s0.9,5.2,2.8,7.1
			c1.9,1.9,4.4,2.8,7.6,2.8c2.3,0,4.4-0.5,6.2-1.4v-6.1h-4.8V144h6.5v8.6c-2.7,1.3-5.3,1.9-8,1.9c-3.5,0-6.4-1.1-8.7-3.3
			c-2.3-2.2-3.5-5-3.5-8.3c0-3.3,1.1-6,3.4-8.2c2.3-2.2,5.2-3.3,8.6-3.3C415.3,131.4,417.9,132,420.7,133.3z"/>
		<path d="M454,131.7v22.5h-1.4l-17.1-19.7v19.7h-1.7v-22.5h1.5l17.1,19.7v-19.7H454z"/>
	</g>
</g>
</svg>
