<svg id="Layer_1" data-name="Layer 1" xmlns="http://www.w3.org/2000/svg" xmlns:xlink="http://www.w3.org/1999/xlink" viewBox="0 0 199.46 45.82"><defs><style>.cls-1{fill:none;}.cls-2{clip-path:url(#clip-path);}.cls-3{fill:#231f20;}</style><clipPath id="clip-path" transform="translate(-14.52 -18.25)"><rect class="cls-1" x="-65.75" y="-61.86" width="360" height="205.71"/></clipPath></defs><title>JID</title><g class="cls-2"><g class="cls-2"><path class="cls-3" d="M14.56,56.21c2.21,0,4.57-1.28,4.57-5.18V18.68h2.46V51c0,5.43-3.61,7.46-7.07,7.46" transform="translate(-14.52 -18.25)"/><path class="cls-3" d="M45.87,35.78H35.77l-2.86,8H30.31l9.21-25.1h2.64l9.21,25.1H48.77ZM40.8,21.28s-0.54,2.07-1,3.25l-3.36,9.1h8.64l-3.28-9.1c-0.43-1.18-1-3.25-1-3.25H40.8Z" transform="translate(-14.52 -18.25)"/><path class="cls-3" d="M68.38,18.25c6,0,9,3.25,9,3.25l-1.32,1.82a11.8,11.8,0,0,0-7.64-2.79c-5.89,0-10.1,4.57-10.1,10.5s4.21,10.89,10.18,10.89a11.74,11.74,0,0,0,8.14-3.36l1.43,1.75a13.39,13.39,0,0,1-9.6,3.89c-7.43,0-12.71-5.82-12.71-13.14A12.46,12.46,0,0,1,68.38,18.25" transform="translate(-14.52 -18.25)"/><path class="cls-3" d="M96.45,18.25a12.69,12.69,0,0,1,12.78,12.82,12.79,12.79,0,1,1-25.56,0A12.69,12.69,0,0,1,96.45,18.25m0,23.67c5.64,0,10.21-4.71,10.21-10.85a10.22,10.22,0,1,0-20.42,0c0,6.14,4.53,10.85,10.21,10.85" transform="translate(-14.52 -18.25)"/><path class="cls-3" d="M116.95,18.68h8.57c4,0,6.78,2.39,6.78,6.32a5.8,5.8,0,0,1-3.18,5.46v0.07c2.57,0.71,4.21,3.18,4.21,6.21,0,4.46-3.32,7-7.53,7h-8.86V18.68Zm8.57,10.89a4.11,4.11,0,0,0,4.25-4.39,4,4,0,0,0-4.28-4.29h-6.07v8.68h6.11Zm0.32,12a4.57,4.57,0,0,0,4.93-4.89,4.71,4.71,0,0,0-5-5h-6.39v9.85h6.43Z" transform="translate(-14.52 -18.25)"/><path class="cls-3" d="M141.06,39.1a9.8,9.8,0,0,0,6.57,2.75c2.75,0,5-1.64,5-4.36,0-6.32-12.53-4.71-12.53-12.5,0-3.61,3.18-6.75,7.82-6.75a9.73,9.73,0,0,1,6.71,2.43l-1.21,2.07a8.56,8.56,0,0,0-5.5-2.14c-3.21,0-5.28,2.11-5.28,4.32,0,6,12.53,4.25,12.53,12.5,0,3.75-2.89,6.78-7.61,6.78a11.06,11.06,0,0,1-8-3.21Z" transform="translate(-14.52 -18.25)"/><path class="cls-3" d="M173.87,18.25a12.69,12.69,0,0,1,12.78,12.82,12.79,12.79,0,1,1-25.56,0,12.69,12.69,0,0,1,12.78-12.82m0,23.67c5.64,0,10.21-4.71,10.21-10.85a10.22,10.22,0,1,0-20.42,0c0,6.14,4.53,10.85,10.21,10.85" transform="translate(-14.52 -18.25)"/><path class="cls-3" d="M194.38,18.68h2.39l12.82,18.07c0.86,1.25,2.07,3.39,2.07,3.39h0.07s-0.21-2.07-.21-3.39V18.68H214v25.1h-2.39L198.77,25.71c-0.86-1.25-2.07-3.39-2.07-3.39h-0.07s0.21,2.07.21,3.39V43.78h-2.46V18.68Z" transform="translate(-14.52 -18.25)"/><rect class="cls-3" x="28.25" y="36.66" width="0.55" height="9"/><path class="cls-3" d="M49.23,54.91h0.51L54.87,62c0.3,0.41.73,1.13,0.73,1.13h0s-0.06-.68-0.06-1.13V54.91h0.55v9H55.61l-5.13-7.06c-0.3-.41-0.73-1.13-0.73-1.13h0s0.06,0.68.06,1.13v7.06H49.23v-9Z" transform="translate(-14.52 -18.25)"/><polygon class="cls-3" points="49.57 37.18 46.21 37.18 46.21 36.66 53.48 36.66 53.48 37.18 50.12 37.18 50.12 45.66 49.57 45.66 49.57 37.18"/><polygon class="cls-3" points="58.09 36.66 63.02 36.66 63.02 37.18 58.65 37.18 58.65 40.87 62.23 40.87 62.23 41.38 58.65 41.38 58.65 45.15 63.26 45.15 63.26 45.67 58.09 45.67 58.09 36.66"/><path class="cls-3" d="M83.08,54.91h2.64a3.44,3.44,0,0,1,1.62.27,2.31,2.31,0,0,1,1.25,2.16,2.4,2.4,0,0,1-1.8,2.48v0a1.79,1.79,0,0,1,.21.32l2,3.74H88.35l-2.13-4H83.63v4H83.08v-9Zm3,4.5A1.89,1.89,0,0,0,88,57.34,1.83,1.83,0,0,0,87,55.6a2.83,2.83,0,0,0-1.26-.18H83.63v4h2.44Z" transform="translate(-14.52 -18.25)"/><rect class="cls-3" x="79.67" y="36.66" width="0.55" height="9"/><path class="cls-3" d="M104.57,54.76a4.55,4.55,0,0,1,4.55,4.59,4.56,4.56,0,1,1-9.11,0,4.54,4.54,0,0,1,4.55-4.59m0,8.78a4.05,4.05,0,0,0,4-4.19,4,4,0,1,0-7.95,0,4.05,4.05,0,0,0,4,4.19" transform="translate(-14.52 -18.25)"/><path class="cls-3" d="M114.39,54.91H117a3.43,3.43,0,0,1,1.62.27,2.31,2.31,0,0,1,1.25,2.16,2.4,2.4,0,0,1-1.8,2.48v0a1.85,1.85,0,0,1,.21.32l2,3.74h-0.66l-2.14-4h-2.59v4h-0.55v-9Zm3,4.5a1.89,1.89,0,0,0,1.93-2.07,1.83,1.83,0,0,0-1.06-1.74,2.84,2.84,0,0,0-1.26-.18h-2.06v4h2.44Z" transform="translate(-14.52 -18.25)"/><path class="cls-3" d="M132.18,54.91H135a4.18,4.18,0,0,1,4.49,4.5,4.17,4.17,0,0,1-4.49,4.5h-2.83v-9Zm2.74,8.49a3.68,3.68,0,0,0,4-4,3.69,3.69,0,0,0-4-4h-2.19v8h2.19Z" transform="translate(-14.52 -18.25)"/><polygon class="cls-3" points="130.31 36.66 135.24 36.66 135.24 37.18 130.87 37.18 130.87 40.87 134.45 40.87 134.45 41.38 130.87 41.38 130.87 45.15 135.48 45.15 135.48 45.67 130.31 45.67 130.31 36.66"/><path class="cls-3" d="M155,62.52a3.47,3.47,0,0,0,2.41,1,1.83,1.83,0,0,0,2-1.77c0-2.56-4.6-1.85-4.6-4.67a2.5,2.5,0,0,1,2.7-2.33,3.36,3.36,0,0,1,2.29.83l-0.31.48a3,3,0,0,0-2-.77,2,2,0,0,0-2.14,1.78c0,2.38,4.6,1.65,4.6,4.65a2.38,2.38,0,0,1-2.61,2.34,3.82,3.82,0,0,1-2.75-1.12Z" transform="translate(-14.52 -18.25)"/><rect class="cls-3" x="150.71" y="36.66" width="0.55" height="9"/><path class="cls-3" d="M175.57,54.75a4.84,4.84,0,0,1,3.14,1l-0.33.42a4.62,4.62,0,0,0-2.8-.91,3.93,3.93,0,0,0-3.91,4.13,3.88,3.88,0,0,0,3.83,4.13,4.21,4.21,0,0,0,3.09-1.48V60.32H177V59.81h2.16v4.1h-0.55V63.13c0-.19,0-0.39,0-0.39h0a4.14,4.14,0,0,1-3.07,1.33,4.47,4.47,0,0,1-4.41-4.66,4.52,4.52,0,0,1,4.49-4.66" transform="translate(-14.52 -18.25)"/><path class="cls-3" d="M184.55,54.91h0.51L190.19,62c0.3,0.41.73,1.13,0.73,1.13h0s-0.06-.68-0.06-1.13V54.91h0.55v9h-0.51l-5.13-7.06c-0.3-.41-0.73-1.13-0.73-1.13h0s0.06,0.68.06,1.13v7.06h-0.55v-9Z" transform="translate(-14.52 -18.25)"/></g></g></svg>